<?xml version="1.0" encoding="UTF-8"?>
<svg width="274px" height="36px" viewBox="0 0 274 36" version="1.1" xmlns="http://www.w3.org/2000/svg" xmlns:xlink="http://www.w3.org/1999/xlink">
    <!-- Generator: Sketch 53 (72520) - https://sketchapp.com -->
    <title>Logos_lockup</title>
    <desc>Created with Sketch.</desc>
    <g id="Symbols" stroke="none" stroke-width="1" fill="none" fill-rule="evenodd">
        <g id="Nav/top" transform="translate(-34.000000, -8.000000)">
            <g id="Logos_lockup" transform="translate(33.000000, 7.000000)">
                <g id="logo_white-copy" fill="#FFFFFF">
                    <g id="RDO_logo_white" transform="translate(1.306368, 1.341675)">
                        <path d="M18.6763146,11.9591105 L0.260852725,11.9591105 C0.19318168,12.3132799 0.141151585,12.6720447 0.0996551893,13.0337636 L19.0682959,13.0337636 C18.9715774,12.6231372 18.8371929,12.2666701 18.6763146,11.9591105" id="Fill-1"></path>
                        <path d="M19.2406974,14.6199766 C19.2406974,14.4519185 19.2346326,14.291738 19.2247373,14.1371377 L0.0154175069,14.1371377 C0.00711822781,14.3462257 9.57609122e-05,14.5569548 9.57609122e-05,14.7703099 C9.57609122e-05,14.8714074 0.0055222126,14.9715202 0.00775663389,15.0732741 L19.2221837,15.0732741 C19.2330366,14.9252385 19.2406974,14.77589 19.2406974,14.6199766" id="Fill-3"></path>
                        <path d="M19.0313641,16.1757291 L0.0675114431,16.1757291 C0.101346965,16.5472952 0.150504234,16.9145942 0.211152811,17.2772978 L18.5713925,17.2772978 C18.7590839,16.9477463 18.916451,16.5817602 19.0313641,16.1757291" id="Fill-5"></path>
                        <path d="M14.3639772,-9.84715775e-05 C12.3861952,-9.84715775e-05 10.5028973,0.410199768 8.78941533,1.15366018 L8.78941533,7.71547786 L8.57554929,7.71547786 C8.57554929,7.71547786 15.328928,7.77095019 16.2399335,7.77095019 C17.7928563,7.77095019 21.4387934,9.37242627 21.4387934,14.5096885 C21.4387934,19.2593009 17.0973129,21.0265375 17.0973129,21.0265375 L20.9386023,27.9008383 C25.5638543,25.4465983 28.726518,20.4901956 28.726518,14.7706382 C28.726518,6.61161148 22.2968112,-9.84715775e-05 14.3639772,-9.84715775e-05" id="Fill-7"></path>
                        <path d="M0.512448562,10.8566227 L17.7873979,10.8566227 C16.897779,10.1289178 15.8587732,10.0350415 15.4884976,10.0350415 L8.57551737,10.0350415 L8.57551737,7.71570763 L1.74169947,7.71570763 C1.22107931,8.69976693 0.806115359,9.75275633 0.512448562,10.8566227" id="Fill-10"></path>
                        <path d="M0.434818382,18.3799825 C1.51532067,22.8072647 4.54008869,26.4362705 8.52182742,28.26259 L8.52182742,19.58987 C8.52182742,19.58987 14.4168692,19.646327 15.3288323,19.646327 C15.8028488,19.646327 16.8396203,19.2567078 17.7282815,18.3799825 L0.434818382,18.3799825 Z" id="Fill-12"></path>
                        <path d="M35.4919946,18.6678149 L36.2398873,18.6678149 C36.8106223,18.6678149 37.2192022,19.1069982 37.2192022,19.7276974 C37.2192022,20.3500377 36.7745524,20.7504888 36.0793282,20.7504888 L35.4919946,20.7504888 L35.4919946,18.6678149 Z M35.4919946,23.6005845 L35.5625384,23.5648065 C35.6161646,23.7282693 35.6346783,23.7643756 35.72214,23.9475327 L37.4321107,27.5095779 L42.4014636,27.5095779 L39.7297341,23.3987178 C39.5873696,23.1801109 39.4462818,23.0530825 39.1079266,22.8338192 L39.1079266,22.723531 C39.9263632,22.4681614 40.3537761,22.248898 40.6563806,21.882912 C41.1364619,21.3347535 41.4039541,20.4767378 41.4039541,19.5274718 C41.4039541,17.9926282 40.7818274,16.8231141 39.4983119,16.019586 C38.7159453,15.5085185 37.9316634,15.3256896 36.6484672,15.3256896 L31.2877713,15.3256896 L31.2877713,27.5095779 L35.4919946,27.5095779 L35.4919946,23.6005845 Z" id="Fill-14"></path>
                        <path d="M48.2432942,23.7834134 L48.2432942,19.0518541 L48.8485032,19.0518541 C50.1834103,19.0518541 51.0752636,20.0201579 51.0752636,21.4447134 C51.0752636,22.8151096 50.1479787,23.7834134 48.8485032,23.7834134 L48.2432942,23.7834134 Z M53.4613063,26.1027473 C54.7962134,24.9883773 55.3845046,23.5815467 55.3845046,21.4808197 C55.3845046,17.6450235 52.8015136,15.3256896 48.5277041,15.3256896 L43.9509709,15.3256896 L43.9509709,27.5095779 L49.6152289,27.5095779 C51.0206799,27.5095779 52.37442,27.0152506 53.4613063,26.1027473 L53.4613063,26.1027473 Z" id="Fill-16"></path>
                        <path d="M63.2037342,19.06994 C64.5383222,19.06994 65.4461356,20.0382439 65.4461356,21.4641123 C65.4461356,22.8151424 64.5565167,23.7644084 63.2742781,23.7644084 C61.9735257,23.7644084 61.0471985,22.796761 61.0471985,21.4263649 C61.0471985,20.0753349 61.9735257,19.06994 63.2037342,19.06994 M63.220652,27.6917831 C67.0312979,27.6917831 69.8096412,25.0616073 69.8096412,21.4263649 C69.8096412,17.7182535 67.1379117,15.1425653 63.3093904,15.1425653 C59.4090485,15.1425653 56.6843313,17.7553445 56.6843313,21.4641123 C56.6843313,25.1160949 59.3918115,27.6917831 63.220652,27.6917831" id="Fill-18"></path>
                        <polygon id="Fill-20" points="30.7909318 35.2126155 33.6337541 35.2126155 33.6337541 34.4225452 31.5713832 34.4225452 31.5713832 32.5771879 33.5718287 32.5771879 33.5718287 31.7861329 31.5713832 31.7861329 31.5713832 30.4561101 33.6337541 30.4561101 33.6337541 29.6660398 30.7909318 29.6660398"></polygon>
                        <path d="M38.5076015,33.8237067 L37.7597087,33.016568 L36.7551768,33.016568 L37.9675099,34.2815996 C37.7137435,34.4394823 37.3648546,34.5310609 37.0488436,34.5310609 C35.9890895,34.5310609 35.1792714,33.6247941 35.1792714,32.4510129 C35.1792714,31.2368584 35.9890895,30.3476601 37.0877863,30.3476601 C38.1679694,30.3476601 39.0030046,31.2614763 39.0030046,32.442807 C39.0030046,33.024774 38.8561712,33.4252251 38.5076015,33.8237067 M39.7831368,32.5018899 C39.7831368,30.8718571 38.5858062,29.5572615 37.0941704,29.5572615 C35.6034922,29.5572615 34.3969047,30.8544604 34.3969047,32.4510129 C34.3969047,34.0488784 35.5868936,35.3211312 37.0791679,35.3211312 C37.5819126,35.3211312 38.0913607,35.1629202 38.5162199,34.8711161 L38.9174582,35.3211312 L39.8990075,35.3211312 L39.0489698,34.4148644 C39.5600139,33.8401187 39.7831368,33.2673423 39.7831368,32.5018899" id="Fill-22"></path>
                        <path d="M43.7869006,33.0088544 C43.7869006,33.4989146 43.7460426,33.7322923 43.6215534,33.9656699 C43.4364156,34.3145875 43.0664593,34.531225 42.6639443,34.531225 C42.2553644,34.531225 41.8834928,34.3145875 41.6983551,33.9656699 C41.5748235,33.7322923 41.5381151,33.4989146 41.5381151,33.0088544 L41.5381151,29.6657444 L40.7557485,29.6657444 L40.7557485,33.2320567 C40.7557485,34.4311122 41.5674818,35.3212953 42.6639443,35.3212953 C43.7537034,35.3212953 44.5651176,34.4311122 44.5651176,33.2320567 L44.5651176,29.6657444 L43.7869006,29.6657444 L43.7869006,33.0088544 Z" id="Fill-24"></path>
                        <polygon id="Fill-26" points="45.8018059 35.2127796 46.5822573 35.2127796 46.5822573 29.6662039 45.8018059 29.6662039"></polygon>
                        <path d="M48.8832325,32.185074 L48.5985033,32.185074 L48.5985033,30.439173 L48.852589,30.439173 C49.5956936,30.439173 49.9583083,30.7211299 49.9583083,31.2873415 C49.9583083,31.8952394 49.6106962,32.185074 48.8832325,32.185074 M50.1437653,30.014104 C49.8098789,29.7479025 49.4865262,29.6658428 48.6977755,29.6658428 L47.8190095,29.6658428 L47.8190095,35.2127468 L48.5985033,35.2127468 L48.5985033,32.9580759 L48.961118,32.9580759 C50.026937,32.9580759 50.7071586,32.3186671 50.7071586,31.3122876 C50.7071586,30.8048308 50.4904198,30.3055799 50.1437653,30.014104" id="Fill-28"></path>
                        <polygon id="Fill-29" points="54.1750443 33.5570129 52.4076171 29.2485531 51.3264764 35.2126483 52.1295912 35.2126483 52.6846853 31.8610041 54.168341 35.4709721 55.6906203 31.8685536 56.1857043 35.2126483 56.9802006 35.2126483 56.007589 29.2485531"></polygon>
                        <polygon id="Fill-30" points="58.069066 35.2126155 60.9131651 35.2126155 60.9131651 34.4225452 58.8504751 34.4225452 58.8504751 32.5771879 60.8512397 32.5771879 60.8512397 31.7861329 58.8504751 31.7861329 58.8504751 30.4561101 60.9131651 30.4561101 60.9131651 29.6660398 58.069066 29.6660398"></polygon>
                        <polygon id="Fill-31" points="65.6887938 33.5159831 61.93337 29.2912241 61.93337 35.2126483 62.7135022 35.2126483 62.7135022 31.3282728 66.4682876 35.5536882 66.4682876 29.6660726 65.6887938 29.6660726"></polygon>
                        <polygon id="Fill-32" points="67.1635437 29.6659085 67.1635437 30.456307 68.3455526 30.456307 68.3455526 35.2124842 69.1250464 35.2124842 69.1250464 30.456307 70.3067361 30.456307 70.3067361 29.6659085"></polygon>
                    </g>
                </g>
                <g id="logo_white" transform="translate(111.000000, 3.000000)" fill="#FFFFFF">
                    <path d="M17.3378258,0.355555556 C22.3375066,0.355555556 27.4311145,1.43122839 32.2175258,3.74373182 C33.9065549,7.7864735 34.6784141,11.9484278 34.6784141,16.0099344 C34.6784141,20.0598509 33.9165001,24.1748928 32.226366,28.2551644 C27.4200643,30.5792579 22.3435843,31.6444444 17.3378258,31.6444444 C12.3348298,31.6444444 7.26055986,30.5792579 2.4498381,28.2551644 C0.759703965,24.1748928 2.84217094e-14,20.0598509 2.84217094e-14,16.0099344 C2.84217094e-14,11.9484278 0.769649181,7.7864735 2.45978331,3.74373182 C7.24729957,1.43122839 12.3420125,0.355555556 17.3378258,0.355555556 Z M3.49938984,27.2816501 C7.65759497,29.2309967 12.3964902,30.3232268 17.3376048,30.3232268 C22.2814819,30.3232268 27.0203771,29.2309967 31.1785822,27.2816501 C32.5775426,23.7830918 33.3405616,19.980431 33.3405616,16.0099896 C33.3405616,12.0301657 32.5731225,8.2230896 31.1697421,4.71625266 C27.0142995,2.76966564 22.2770618,1.67798741 17.3376048,1.67798741 C12.3998052,1.67798741 7.66588265,2.76966564 3.50712501,4.71625266 C2.10319208,8.2230896 1.33685797,12.0301657 1.33685797,16.0099896 C1.33685797,19.980431 2.10208706,23.7830918 3.49938984,27.2816501 Z" id="Combined-Shape"></path>
                    <path d="M30.5377675,26.7676925 C29.6536908,25.3494153 28.4661669,24.2040095 28.4533137,24.1931164 C28.438784,24.1860359 28.2063087,24.1157756 28.2063087,24.1157756 C25.6859637,23.3608862 24.034048,22.7933574 23.3036509,22.4246272 C22.298866,21.915921 21.243227,20.681192 21.1269894,20.5423054 C19.9489656,20.4557055 18.9743577,20.4742237 18.0366329,20.5847883 L17.4392385,20.6604952 C16.3003331,20.803739 15.1245447,20.9551526 13.9722273,20.7748723 C13.2049471,20.6523254 12.4600204,20.4143119 11.6703868,20.1637714 C10.4538034,19.7754336 9.20760178,19.3767474 7.78369069,19.378926 L7.72668954,19.378926 L7.75127827,19.4279448 C8.07484362,20.0412244 9.35289883,21.9023047 10.9534017,22.4137341 C11.3065853,22.4965214 11.5619728,22.5880231 11.6726221,22.6724444 C11.6726221,22.676257 12.2851051,23.8908338 12.4521967,24.2192597 C11.456353,23.7786352 8.37605558,22.2519721 5.8909172,19.3048531 L5.8909172,19.3004959 C5.8909172,19.2612809 5.8266512,18.6877609 5.81323916,18.5624907 C7.29303373,18.0243732 10.6253657,17.7122869 11.0009027,17.6774291 L11.0282856,17.6752505 L11.0400211,17.6458392 C11.2389663,15.9372618 11.6541806,14.5701821 12.4320786,13.0729302 C12.454432,13.027724 12.467844,12.9863303 12.467844,12.9503832 C12.467844,12.9242398 12.4600204,12.8975518 12.4488437,12.8763103 C12.4052545,12.7957017 12.2985171,12.7799067 12.2940464,12.7799067 C12.2940464,12.7799067 10.1425324,12.4138997 10.0262948,12.3942922 C10.0140004,12.3572558 9.79996667,11.7172881 9.78152512,11.6639121 C11.4161169,11.0713293 13.4312752,10.5168723 14.5847103,10.2728676 C14.7797436,9.96949574 14.8345094,9.80446579 14.8345094,9.60621199 C14.8345094,9.43791413 14.7512431,9.29467031 14.5847103,9.18465035 C13.767135,8.64435428 11.1920242,8.9695123 8.58673631,9.94335238 C8.58114796,9.93300397 8.58114796,9.93082535 8.57332427,9.91993229 C9.11427636,9.5256033 10.0810606,8.93955637 10.7980456,8.614943 L10.8259874,8.59969271 L10.8176049,8.57354935 C10.6231303,7.93140313 9.35066349,7.44012586 9.20760178,7.39001776 C9.21039595,7.36823162 9.21263129,7.35352599 9.21486663,7.33664173 C10.5085692,7.25058651 11.3669395,7.84044603 11.629033,8.26091837 L11.642445,8.28161519 L11.6681514,8.27344539 C11.8341254,8.22115868 12.4186666,8.04033378 13.0512676,7.96735024 L13.0881507,7.96571628 L13.0780916,7.92813521 C12.8702051,6.84808773 11.8123308,6.12696678 11.4518824,5.90965012 C11.4619414,5.89222121 11.4652944,5.88568537 11.4753534,5.87315835 C12.7243492,5.96738336 13.8783431,7.01584095 14.1382013,7.90199185 L14.1454661,7.92595659 L14.1711725,7.92813521 C14.5064734,7.93957293 14.9133052,7.9760647 15.1854577,8.02072627 L15.2133994,8.02508349 L15.2234585,8.00220805 C15.3251664,7.7696411 15.3749027,7.5212792 15.3749027,7.26583681 C15.3749027,6.46791974 14.9121875,5.61226942 14.3432936,5.0714287 C14.3544703,5.05617841 14.3594999,5.04201743 14.3740296,5.02894575 C16.0147686,5.63568951 16.4322182,6.78817587 16.4322182,7.86114285 C16.4322182,8.61221974 16.2276846,9.32734951 16.0957996,9.78322431 L16.040475,9.972219 C16.040475,9.972219 18.4568767,9.68790999 18.6200564,9.66884712 C18.3741691,9.972219 17.8443937,10.5125151 16.7865194,11.0816778 C16.7865194,11.0762312 15.6962327,10.9460591 15.6962327,10.9460591 L15.6677321,10.9417019 L15.6582319,10.9689345 C15.5850246,11.1884298 14.9468352,13.1535389 14.9434822,14.5979594 C14.9434822,15.1333536 15.0988383,15.548924 15.4056386,15.8354117 C15.9521791,16.3479304 16.8574914,16.3762524 17.4900924,16.3522876 C20.1797644,16.2564287 22.2787479,16.417646 23.7350714,16.8375737 L23.821132,16.8604492 L23.834544,16.8408416 C23.9250752,16.705223 23.9960473,16.4535931 23.9960473,16.1202653 C23.9960473,15.4873782 23.7361891,14.5440387 22.8621714,13.4770629 C22.8716716,13.4694378 22.8716716,13.4639912 22.8828483,13.4558214 C23.0275865,13.5337069 25.3869871,14.8397855 25.7021699,16.8114304 C25.6468453,16.8321272 24.5716471,17.25968 24.5716471,17.25968 L24.6062949,17.2939932 C25.6032562,18.3114055 25.9474984,19.540688 26.2235628,20.5248765 C26.4431849,21.30482 26.7052784,21.8031778 27.0528737,22.0956566 C27.4557936,22.4344309 28.9825302,23.1446588 29.4407748,23.353261 C29.8219001,23.8810301 30.4768545,24.8701204 30.9518641,25.635903 L30.9518641,25.634269 C31.9834732,22.6506583 32.5110132,19.540688 32.5110132,16.3653593 C32.5110132,12.7771834 31.8392938,9.27288418 30.526032,5.9401507 C26.4605088,4.15096464 21.9087993,3.2 17.3380894,3.2 C12.7668207,3.2 8.22014067,4.15096464 4.15349978,5.9401507 C2.83856148,9.27288418 2.16740088,12.7771834 2.16740088,16.3653593 C2.16740088,19.9453654 2.83744381,23.4414949 4.1456761,26.7725944 C8.21287582,28.5645037 12.7645853,29.5111111 17.3380894,29.5111111 C21.9138288,29.5111111 26.4655383,28.5645037 30.5321792,26.7725944 L30.5377675,26.7676925 Z" id="Combined-Shape"></path>
                    <path d="M40.4581498,20.1920965 C40.4581498,20.1920965 41.968152,20.718927 43.6588815,20.718927 C45.4582726,20.718927 46.5820476,20.4786087 47.2098076,19.8599404 C47.7300321,19.3507076 47.9377841,18.4988701 47.9090704,17.2433858 L47.9090704,8.88888889 L50.5726872,8.88888889 L50.5726872,17.6052381 C50.5332763,21.4640786 48.6122742,23.1111111 44.1425101,23.1111111 C41.9720931,23.1111111 40.4581498,22.7767553 40.4581498,22.7767553 L40.4581498,20.1920965 Z" id="Fill-8"></path>
                    <path d="M58.8796416,20.8926981 C57.3167454,20.8926981 54.6870026,20.4366257 54.6870026,17.3931169 C54.6870026,15.2104848 56.2159228,13.9576208 58.8796416,13.9576208 C61.5433604,13.9576208 63.0677505,15.2104848 63.0677505,17.3931169 C63.0677505,20.4366257 60.4459354,20.8926981 58.8796416,20.8926981 M52.0176211,17.5090041 C52.0176211,20.0921682 53.8155181,23.1111111 58.8796416,23.1111111 C63.9460302,23.1111111 65.7444934,20.0921682 65.7444934,17.5090041 C65.7444934,13.8940697 63.1781725,11.7333333 58.8796416,11.7333333 C54.583942,11.7333333 52.0176211,13.8940697 52.0176211,17.5090041" id="Fill-10"></path>
                    <polygon id="Fill-12" points="76.8039104 11.7333333 76.8039104 16.2591704 69.8585783 16.2591704 69.8585783 11.7333333 67.1894273 11.7333333 67.1894273 23.1111111 69.8585783 23.1111111 69.8585783 18.5858332 76.8039104 18.5858332 76.8039104 23.1111111 79.4713656 23.1111111 79.4713656 11.7333333"></polygon>
                    <polygon id="Fill-14" points="118.133435 20.7822117 118.133435 18.5858332 123.993637 18.5858332 123.993637 16.2591704 118.133435 16.2591704 118.133435 14.0627919 125.709251 14.0627919 125.709251 11.7333333 115.594714 11.7333333 115.594714 23.1111111 125.709251 23.1111111 125.709251 20.7822117"></polygon>
                    <polygon id="Fill-16" points="130.417255 20.7822117 130.417255 18.5858332 136.27791 18.5858332 136.27791 16.2591704 130.417255 16.2591704 130.417255 14.0627919 137.991189 14.0627919 137.991189 11.7333333 127.876652 11.7333333 127.876652 23.1111111 137.991189 23.1111111 137.991189 20.7822117"></polygon>
                    <polygon id="Fill-18" points="156.421223 20.7822117 156.421223 18.5858332 162.284395 18.5858332 162.284395 16.2591704 156.421223 16.2591704 156.421223 14.0627919 164 14.0627919 164 11.7333333 153.885463 11.7333333 153.885463 23.1111111 164 23.1111111 164 20.7822117"></polygon>
                    <path d="M106.077564,8.88888889 C111.129331,8.88888889 114.14978,11.5903947 114.14978,16.1024188 C114.14978,19.338965 112.034684,23.1111111 106.077564,23.1111111 L102.751607,23.1111111 L99.7004405,23.1111111 L99.7004405,8.88888889 L102.751607,8.88888889 L106.077564,8.88888889 L106.077564,8.88888889 Z M102.347801,11.2406037 L102.347801,20.7649929 L106.077564,20.7649929 C108.101063,20.7649929 111.495717,20.1398464 111.495717,15.9580251 C111.495717,12.9570981 109.521367,11.2406037 106.077564,11.2406037 L102.347801,11.2406037 Z" id="Fill-20"></path>
                    <path d="M147.869872,16.6259791 C148.424767,16.6259791 149.350915,16.4531988 149.350915,15.3281698 C149.350915,14.5218618 148.81189,14.0627919 147.869872,14.0627919 L142.980109,14.0627919 L142.980109,16.6198283 L147.869872,16.6259791 Z M152.440529,23.1111111 L149.204681,23.1111111 L145.977902,18.9470502 L142.835009,18.9470502 L142.835009,23.1111111 L140.15859,23.1111111 L140.15859,11.7333333 L147.724772,11.7333333 C150.329774,11.7333333 151.881666,13.09936 151.881666,15.384645 C151.881666,16.7545858 151.106854,18.2939519 149.076585,18.7742699 L152.440529,23.1111111 Z" id="Fill-22"></path>
                    <polygon id="Fill-24" points="91.2486046 23.1111111 84.3063445 15.3555687 84.3063445 23.1111111 81.6387665 23.1111111 81.6387665 11.7333333 84.285429 11.7333333 91.2486046 19.4117118 91.2486046 11.7333333 93.9207048 11.7333333 93.9207048 23.1111111"></polygon>
                </g>
                <path d="M90.5,3 L90.5,35" id="Path-2" stroke="#FFFFFF" stroke-width="0.5"></path>
            </g>
        </g>
    </g>
</svg>