<?xml version="1.0" encoding="UTF-8"?>
<svg width="19px" height="19px" viewBox="0 0 19 19" version="1.1" xmlns="http://www.w3.org/2000/svg" xmlns:xlink="http://www.w3.org/1999/xlink">
    <!-- Generator: Sketch 53.2 (72643) - https://sketchapp.com -->
    <title>IG_logo</title>
    <desc>Created with Sketch.</desc>
    <g id="Symbols" stroke="none" stroke-width="1" fill="none" fill-rule="evenodd">
        <g id="Footer/black" transform="translate(-177.000000, -391.000000)" fill="#FFFFFF">
            <g id="Footer">
                <g id="Group-7" transform="translate(134.000000, 390.000000)">
                    <g id="Group-8">
                        <g id="IG_logo" transform="translate(43.000000, 1.000000)">
                            <path d="M9.49700298,3.76984126e-06 C6.91779067,3.76984126e-06 6.59433829,0.0109363095 5.58141964,0.0571545635 C4.57053671,0.103259722 3.88020337,0.263817262 3.27608631,0.498602976 C2.6516121,0.741267659 2.1219494,1.06600179 1.59398313,1.59396806 C1.06597917,2.12197202 0.741282738,2.65159702 0.498580357,3.27607123 C0.263794643,3.88018829 0.103274802,4.57052163 0.0571319444,5.58140456 C0.0109136905,6.59436091 1.88492064e-05,6.9177379 1.88492064e-05,9.4969879 C1.88492064e-05,12.0762379 0.0109136905,12.3996526 0.0571319444,13.4126089 C0.103274802,14.4234542 0.263794643,15.1138252 0.498580357,15.7179046 C0.741282738,16.3423788 1.06597917,16.8720415 1.59398313,17.4000077 C2.1219494,17.9280117 2.6516121,18.2527081 3.27608631,18.4954482 C3.88020337,18.7301962 4.57053671,18.8907538 5.58141964,18.9368966 C6.59433829,18.9830772 6.91779067,18.9940097 9.49700298,18.9940097 C12.076253,18.9940097 12.39963,18.9830772 13.4125863,18.9368966 C14.4234692,18.8907538 15.1138026,18.7301962 15.7179196,18.4954482 C16.3424315,18.2527081 16.8720565,17.9280117 17.4000228,17.4000077 C17.9280268,16.8720415 18.2527232,16.3424165 18.4954256,15.7179046 C18.7302113,15.1138252 18.8907688,14.4234542 18.936874,13.4126089 C18.9830923,12.3996526 18.9940248,12.0762379 18.9940248,9.4969879 C18.9940248,6.9177756 18.9830923,6.59436091 18.936874,5.58140456 C18.8907688,4.57052163 18.7302113,3.88018829 18.4954256,3.27607123 C18.2527232,2.65159702 17.9280268,2.12197202 17.4000228,1.59396806 C16.8720565,1.06600179 16.3424315,0.741267659 15.7179196,0.498602976 C15.1138026,0.263817262 14.4234692,0.103259722 13.4125863,0.0571545635 C12.39963,0.0109363095 12.076253,3.76984126e-06 9.49700298,3.76984126e-06 M9.49700298,1.71117242 C12.0328244,1.71117242 12.3331677,1.72082321 13.3345883,1.76651369 C14.2605367,1.80877361 14.7633958,1.9634879 15.0980446,2.09354742 C15.5413403,2.26582917 15.8577431,2.4716248 16.1900546,2.80393631 C16.5223661,3.13628552 16.7281617,3.4526506 16.9004812,3.89594623 C17.030503,4.23059504 17.1852173,4.73345417 17.2274772,5.65940258 C17.27313,6.66082321 17.2828185,6.96120417 17.2828185,9.4969879 C17.2828185,12.0328093 17.27313,12.3331903 17.2274772,13.3345732 C17.1852173,14.2605593 17.030503,14.7634185 16.9004812,15.0980673 C16.7281617,15.5413252 16.5223661,15.857728 16.1900546,16.1900395 C15.8577431,16.5223887 15.5413403,16.7281843 15.0980446,16.9004661 C14.7633958,17.0304879 14.2605367,17.1852399 13.3345883,17.2274621 C12.3333185,17.2731526 12.0330129,17.2828411 9.49700298,17.2828411 C6.96099306,17.2828411 6.6606875,17.2731526 5.65941766,17.2274621 C4.73346925,17.1852399 4.23057242,17.0304879 3.89592361,16.9004661 C3.45266567,16.7281843 3.1362629,16.5223887 2.80395139,16.1900395 C2.47163988,15.857728 2.26580655,15.5413252 2.0935248,15.0980673 C1.96350298,14.7634185 1.80878869,14.2605593 1.76652877,13.3346109 C1.72083829,12.3331903 1.7111875,12.0328093 1.7111875,9.4969879 C1.7111875,6.96120417 1.72083829,6.66082321 1.76652877,5.65940258 C1.80878869,4.73345417 1.96350298,4.23059504 2.0935248,3.89594623 C2.26580655,3.4526506 2.47163988,3.13628552 2.80395139,2.80397401 C3.1362629,2.4716248 3.45266567,2.26582917 3.89592361,2.09354742 C4.23057242,1.9634879 4.73346925,1.80877361 5.65937996,1.76651369 C6.66083829,1.72082321 6.96118155,1.71117242 9.49700298,1.71117242" id="Fill-1"></path>
                            <path d="M9.49700298,12.6626744 C7.74866369,12.6626744 6.33131647,11.2453272 6.33131647,9.4969879 C6.33131647,7.74864861 7.74866369,6.33133909 9.49700298,6.33133909 C11.2453423,6.33133909 12.6626895,7.74864861 12.6626895,9.4969879 C12.6626895,11.2453272 11.2453423,12.6626744 9.49700298,12.6626744 M9.49700298,4.62017044 C6.80360218,4.62017044 4.62014782,6.8035871 4.62014782,9.4969879 C4.62014782,12.1904264 6.80360218,14.3738431 9.49700298,14.3738431 C12.1904038,14.3738431 14.3738204,12.1904264 14.3738204,9.4969879 C14.3738204,6.8035871 12.1904038,4.62017044 9.49700298,4.62017044" id="Fill-4"></path>
                            <path d="M15.7061615,4.42748631 C15.7061615,5.05689901 15.1959512,5.56710933 14.5665385,5.56710933 C13.9371258,5.56710933 13.4268778,5.05689901 13.4268778,4.42748631 C13.4268778,3.79807361 13.9371258,3.28786329 14.5665385,3.28786329 C15.1959512,3.28786329 15.7061615,3.79807361 15.7061615,4.42748631" id="Fill-6"></path>
                        </g>
                    </g>
                </g>
            </g>
        </g>
    </g>
</svg>