<?xml version="1.0" encoding="UTF-8"?>
<svg width="17px" height="19px" viewBox="0 0 17 19" version="1.1" xmlns="http://www.w3.org/2000/svg" xmlns:xlink="http://www.w3.org/1999/xlink">
    <!-- Generator: Sketch 53 (72520) - https://sketchapp.com -->
    <title>icons/podcast</title>
    <desc>Created with Sketch.</desc>
    <g id="Symbols" stroke="none" stroke-width="1" fill="none" fill-rule="evenodd">
        <g id="Footer/black" transform="translate(-331.000000, -390.000000)" fill="#FFFFFF" fill-rule="nonzero">
            <g id="Footer">
                <g id="Group-7" transform="translate(135.000000, 388.000000)">
                    <g id="Group-8">
                        <g id="icons/podcast" transform="translate(196.000000, 2.000000)">
                            <path d="M10.6147343,16.8108696 C10.6147343,17.9880435 9.64975845,18.8141304 8.62318841,18.8141304 C7.59661836,18.8141304 6.4673913,18.1945652 6.4673913,16.8315217 C6.4673913,15.4684783 7.28864734,11.4413043 8.5205314,11.4413043 C9.77294686,11.4413043 10.6147343,15.4065217 10.6147343,16.8108696 Z" id="Path"></path>
                            <ellipse id="Oval" cx="8.4178744" cy="8.4673913" rx="1.97101449" ry="1.9826087"></ellipse>
                            <path d="M16.8357488,8.4673913 C16.8357488,3.8 13.0785024,-3.90798505e-14 8.4178744,-3.90798505e-14 C3.75724638,-3.90798505e-14 2.38031816e-13,3.77934783 2.38031816e-13,8.4673913 C2.38031816e-13,12.0402174 2.2173913,15.1173913 5.33816425,16.3358696 C5.35869565,16.026087 5.39975845,15.4478261 5.52294686,14.7663043 C3.16183575,13.6923913 1.49879227,11.276087 1.49879227,8.4673913 C1.49879227,4.62608696 4.59903382,1.5076087 8.4178744,1.5076087 C12.236715,1.5076087 15.3369565,4.62608696 15.3369565,8.4673913 C15.3369565,11.1521739 13.8176329,13.4858696 11.6207729,14.6423913 C11.7439614,15.3032609 11.8055556,15.8608696 11.826087,16.2119565 C14.7620773,14.9108696 16.8357488,11.9369565 16.8357488,8.4673913 Z" id="Path"></path>
                            <path d="M13.8176329,8.4673913 C13.8176329,5.45217391 11.3949275,3.03586957 8.4178744,3.03586957 C5.42028986,3.03586957 3.01811594,5.47282609 3.01811594,8.4673913 C3.01811594,10.5326087 4.1678744,12.35 5.87198068,13.2586957 C6.01570048,12.7217391 6.20048309,12.1641304 6.4468599,11.6891304 C5.37922705,11.0282609 4.66062802,9.83043478 4.66062802,8.4673913 C4.66062802,6.36086957 6.3442029,4.6673913 8.4384058,4.6673913 C10.5326087,4.6673913 12.2161836,6.36086957 12.2161836,8.4673913 C12.2161836,9.72717391 11.6002415,10.8423913 10.6763285,11.523913 C10.9227053,11.998913 11.1280193,12.5358696 11.2922705,13.0934783 C12.7910628,12.1434783 13.8176329,10.4293478 13.8176329,8.4673913 Z" id="Path"></path>
                        </g>
                    </g>
                </g>
            </g>
        </g>
    </g>
</svg>