<?xml version="1.0" encoding="UTF-8"?>
<svg width="19px" height="16px" viewBox="0 0 19 16" version="1.1" xmlns="http://www.w3.org/2000/svg" xmlns:xlink="http://www.w3.org/1999/xlink">
    <!-- Generator: Sketch 53 (72520) - https://sketchapp.com -->
    <title>icons/twitter</title>
    <desc>Created with Sketch.</desc>
    <g id="Symbols" stroke="none" stroke-width="1" fill="none" fill-rule="evenodd">
        <g id="Footer/black" transform="translate(-240.000000, -391.000000)" fill="#FFFFFF" fill-rule="nonzero">
            <g id="Footer">
                <g id="Group-7" transform="translate(135.000000, 388.000000)">
                    <g id="Group-8">
                        <g id="icons/twitter" transform="translate(105.000000, 3.000000)">
                            <path d="M16.763,2.50650155 C17.568,2.01213622 18.186,1.22749226 18.477,0.293250774 C17.723,0.750959752 16.89,1.08482972 16,1.26315789 C15.291,0.485448916 14.277,0 13.155,0 C11.004,0 9.258,1.79219814 9.258,4.00148607 C9.258,4.3155418 9.291,4.6196904 9.358,4.91294118 C6.118,4.74551084 3.247,3.15442724 1.323,0.730154799 C0.987,1.32359133 0.796,2.01114551 0.796,2.74427245 C0.796,4.13226006 1.484,5.35678019 2.53,6.07504644 C1.892,6.0552322 1.29,5.87393189 0.763,5.57572755 L0.763,5.62526316 C0.763,7.5650774 2.107,9.18291022 3.891,9.54848297 C3.564,9.64260062 3.22,9.68916409 2.864,9.68916409 C2.613,9.68916409 2.368,9.665387 2.13,9.61783282 C2.626,11.206935 4.065,12.3640867 5.771,12.3957895 C4.437,13.4697214 2.755,14.1097214 0.93,14.1097214 C0.616,14.1097214 0.304,14.0918885 0,14.0552322 C1.725,15.1886068 3.775,15.8513932 5.975,15.8513932 C13.146,15.8513932 17.066,9.75455108 17.066,4.46613003 L17.056,3.9469969 C17.818,3.38229102 18.479,2.67888545 19,1.87541796 C18.302,2.19343653 17.55,2.40941176 16.762,2.50551084 L16.763,2.50650155 Z" id="Path"></path>
                        </g>
                    </g>
                </g>
            </g>
        </g>
    </g>
</svg>