<?xml version="1.0" encoding="UTF-8"?>
<svg width="19px" height="13px" viewBox="0 0 19 13" version="1.1" xmlns="http://www.w3.org/2000/svg" xmlns:xlink="http://www.w3.org/1999/xlink">
    <!-- Generator: Sketch 53 (72520) - https://sketchapp.com -->
    <title>icons/youtube</title>
    <desc>Created with Sketch.</desc>
    <g id="Symbols" stroke="none" stroke-width="1" fill="none" fill-rule="evenodd">
        <g id="Footer/black" transform="translate(-286.000000, -394.000000)" fill="#FFFFFF" fill-rule="nonzero">
            <g id="Footer">
                <g id="Group-7" transform="translate(135.000000, 388.000000)">
                    <g id="Group-8">
                        <g id="icons/youtube" transform="translate(151.000000, 6.000000)">
                            <path d="M7.53789695,8.84271524 L7.53696727,3.68120845 L12.6706953,6.27104901 L7.53789695,8.84271524 L7.53789695,8.84271524 Z M18.810344,2.78703192 C18.810344,2.78703192 18.6244067,1.52119056 18.0554387,0.964147659 C17.3330724,0.232631292 16.5233156,0.228996428 16.151441,0.186286777 C13.492538,0 9.50418359,0 9.50418359,0 L9.49581641,0 C9.49581641,0 5.50746196,0 2.84855899,0.186286777 C2.47668444,0.228996428 1.66785732,0.232631292 0.944561335,0.964147659 C0.375593287,1.52119056 0.189656016,2.78703192 0.189656016,2.78703192 C0.189656016,2.78703192 0,4.27369127 0,5.76035062 L0,7.15432094 C0,8.64098029 0.189656016,10.1276396 0.189656016,10.1276396 C0.189656016,10.1276396 0.3746636,11.393481 0.944561335,11.9505239 C1.66785732,12.6820403 2.61706708,12.6593224 3.04007437,12.7356545 C4.56011156,12.8765055 9.50046484,12.9201239 9.50046484,12.9201239 C9.50046484,12.9201239 13.492538,12.9146716 16.151441,12.7283848 C16.5223859,12.6856751 17.3321427,12.6820403 18.0554387,11.9496152 C18.6244067,11.3925723 18.810344,10.1267309 18.810344,10.1267309 C18.810344,10.1267309 19,8.64098029 19,7.15341223 L19,5.75944191 C19,4.27369127 18.810344,2.78612321 18.810344,2.78612321 L18.810344,2.78703192 Z" id="Shape"></path>
                        </g>
                    </g>
                </g>
            </g>
        </g>
    </g>
</svg>